<mxfile host="app.diagrams.net" modified="2022-12-26T10:16:06.311Z" agent="5.0 (Windows NT 10.0; Win64; x64) AppleWebKit/537.36 (KHTML, like Gecko) Chrome/108.0.0.0 Safari/537.36 Edg/108.0.1462.54" etag="7ee5ayD8qOi2FlCDJQ-h" version="20.7.4" type="github">
  <diagram id="prtHgNgQTEPvFCAcTncT" name="Page-1">
    <mxGraphModel dx="378" dy="189" grid="1" gridSize="10" guides="1" tooltips="1" connect="1" arrows="1" fold="1" page="1" pageScale="1" pageWidth="827" pageHeight="1169" math="0" shadow="0">
      <root>
        <mxCell id="0" />
        <mxCell id="1" parent="0" />
        <mxCell id="dNxyNK7c78bLwvsdeMH5-19" value="Check In / Check Out" style="swimlane;html=1;childLayout=stackLayout;resizeParent=1;resizeParentMax=0;horizontal=0;startSize=20;horizontalStack=0;rounded=0;" parent="1" vertex="1">
          <mxGeometry x="110" y="110" width="630" height="585.92" as="geometry" />
        </mxCell>
        <mxCell id="dNxyNK7c78bLwvsdeMH5-20" value="&amp;nbsp;PPIC" style="swimlane;html=1;startSize=21;horizontal=0;" parent="dNxyNK7c78bLwvsdeMH5-19" vertex="1">
          <mxGeometry x="20" width="610" height="180" as="geometry" />
        </mxCell>
        <mxCell id="dNxyNK7c78bLwvsdeMH5-25" value="" style="edgeStyle=orthogonalEdgeStyle;rounded=0;orthogonalLoop=1;jettySize=auto;html=1;" parent="dNxyNK7c78bLwvsdeMH5-20" source="dNxyNK7c78bLwvsdeMH5-23" target="dNxyNK7c78bLwvsdeMH5-24" edge="1">
          <mxGeometry relative="1" as="geometry" />
        </mxCell>
        <mxCell id="dNxyNK7c78bLwvsdeMH5-23" value="START" style="ellipse;whiteSpace=wrap;html=1;" parent="dNxyNK7c78bLwvsdeMH5-20" vertex="1">
          <mxGeometry x="30" y="42.5" width="50" height="35" as="geometry" />
        </mxCell>
        <mxCell id="dNxyNK7c78bLwvsdeMH5-24" value="Farms &amp;amp; Users&lt;br&gt;Collection" style="rounded=0;whiteSpace=wrap;html=1;fontFamily=Helvetica;fontSize=12;fontColor=#000000;align=center;" parent="dNxyNK7c78bLwvsdeMH5-20" vertex="1">
          <mxGeometry x="121" y="37.5" width="100" height="45" as="geometry" />
        </mxCell>
        <mxCell id="y52odibCs_0-G0sl_E-t-2" value="&lt;font style=&quot;font-size: 10px;&quot;&gt;farm &amp;amp; user info&lt;/font&gt;" style="shape=card;whiteSpace=wrap;html=1;size=20;rotation=90;verticalAlign=middle;horizontal=0;align=left;" vertex="1" parent="dNxyNK7c78bLwvsdeMH5-20">
          <mxGeometry x="211" y="54.870000000000005" width="35.62" height="70.25" as="geometry" />
        </mxCell>
        <mxCell id="y52odibCs_0-G0sl_E-t-18" style="edgeStyle=orthogonalEdgeStyle;rounded=0;orthogonalLoop=1;jettySize=auto;html=1;exitX=0;exitY=0.5;exitDx=0;exitDy=0;entryX=1;entryY=0.5;entryDx=0;entryDy=0;fontSize=11;" edge="1" parent="dNxyNK7c78bLwvsdeMH5-20" source="y52odibCs_0-G0sl_E-t-17" target="dNxyNK7c78bLwvsdeMH5-24">
          <mxGeometry relative="1" as="geometry" />
        </mxCell>
        <mxCell id="y52odibCs_0-G0sl_E-t-17" value="Approval Add New" style="rounded=0;whiteSpace=wrap;html=1;fontFamily=Helvetica;fontSize=12;fontColor=#000000;align=center;labelBorderColor=none;" vertex="1" parent="dNxyNK7c78bLwvsdeMH5-20">
          <mxGeometry x="395" y="36.25" width="100" height="47.5" as="geometry" />
        </mxCell>
        <mxCell id="y52odibCs_0-G0sl_E-t-19" value="yes" style="text;strokeColor=none;fillColor=none;align=left;verticalAlign=middle;spacingLeft=4;spacingRight=4;overflow=hidden;points=[[0,0.5],[1,0.5]];portConstraint=eastwest;rotatable=0;whiteSpace=wrap;html=1;fontSize=11;" vertex="1" parent="dNxyNK7c78bLwvsdeMH5-20">
          <mxGeometry x="265" y="36.25" width="80" height="30" as="geometry" />
        </mxCell>
        <mxCell id="y52odibCs_0-G0sl_E-t-20" value="&lt;font style=&quot;font-size: 10px;&quot;&gt;farm info&lt;/font&gt;" style="shape=card;whiteSpace=wrap;html=1;size=20;rotation=90;verticalAlign=middle;horizontal=0;" vertex="1" parent="dNxyNK7c78bLwvsdeMH5-20">
          <mxGeometry x="481" y="54.870000000000005" width="35.62" height="70.25" as="geometry" />
        </mxCell>
        <mxCell id="y52odibCs_0-G0sl_E-t-37" value="No" style="text;strokeColor=none;fillColor=none;align=left;verticalAlign=middle;spacingLeft=4;spacingRight=4;overflow=hidden;points=[[0,0.5],[1,0.5]];portConstraint=eastwest;rotatable=0;whiteSpace=wrap;html=1;fontSize=11;" vertex="1" parent="dNxyNK7c78bLwvsdeMH5-20">
          <mxGeometry x="571" y="125.12" width="80" height="30" as="geometry" />
        </mxCell>
        <mxCell id="y52odibCs_0-G0sl_E-t-33" style="edgeStyle=orthogonalEdgeStyle;rounded=0;orthogonalLoop=1;jettySize=auto;html=1;entryX=0.5;entryY=1;entryDx=0;entryDy=0;fontSize=11;" edge="1" parent="dNxyNK7c78bLwvsdeMH5-19" source="y52odibCs_0-G0sl_E-t-22" target="y52odibCs_0-G0sl_E-t-17">
          <mxGeometry relative="1" as="geometry" />
        </mxCell>
        <mxCell id="y52odibCs_0-G0sl_E-t-39" style="edgeStyle=elbowEdgeStyle;rounded=0;orthogonalLoop=1;jettySize=auto;html=1;fontSize=11;entryX=1;entryY=0.5;entryDx=0;entryDy=0;" edge="1" parent="dNxyNK7c78bLwvsdeMH5-19" source="y52odibCs_0-G0sl_E-t-17" target="y52odibCs_0-G0sl_E-t-22">
          <mxGeometry relative="1" as="geometry">
            <mxPoint x="601" y="230" as="targetPoint" />
            <Array as="points">
              <mxPoint x="591" y="140" />
            </Array>
          </mxGeometry>
        </mxCell>
        <mxCell id="dNxyNK7c78bLwvsdeMH5-21" value="Doctor, Technical, Supervisor&amp;nbsp;" style="swimlane;html=1;startSize=20;horizontal=0;" parent="dNxyNK7c78bLwvsdeMH5-19" vertex="1">
          <mxGeometry x="20" y="180" width="610" height="245.92" as="geometry" />
        </mxCell>
        <mxCell id="y52odibCs_0-G0sl_E-t-10" value="Check In/ Check Out" style="rounded=0;whiteSpace=wrap;html=1;fontFamily=Helvetica;fontSize=12;fontColor=#000000;align=center;" vertex="1" parent="dNxyNK7c78bLwvsdeMH5-21">
          <mxGeometry x="119.99999999999999" y="140" width="100" height="45" as="geometry" />
        </mxCell>
        <mxCell id="y52odibCs_0-G0sl_E-t-11" value="&lt;span style=&quot;font-size: 10px;&quot;&gt;Take image &amp;amp; Fill all necessary info&lt;/span&gt;" style="shape=card;whiteSpace=wrap;html=1;size=20;rotation=90;verticalAlign=middle;horizontal=0;align=left;" vertex="1" parent="dNxyNK7c78bLwvsdeMH5-21">
          <mxGeometry x="211" y="150" width="42.73" height="89.94" as="geometry" />
        </mxCell>
        <mxCell id="y52odibCs_0-G0sl_E-t-24" style="edgeStyle=orthogonalEdgeStyle;rounded=0;orthogonalLoop=1;jettySize=auto;html=1;entryX=0;entryY=0.5;entryDx=0;entryDy=0;fontSize=11;" edge="1" parent="dNxyNK7c78bLwvsdeMH5-21" source="y52odibCs_0-G0sl_E-t-14" target="y52odibCs_0-G0sl_E-t-22">
          <mxGeometry relative="1" as="geometry" />
        </mxCell>
        <mxCell id="y52odibCs_0-G0sl_E-t-65" style="edgeStyle=elbowEdgeStyle;rounded=0;orthogonalLoop=1;jettySize=auto;html=1;entryX=0.5;entryY=0;entryDx=0;entryDy=0;fontSize=11;" edge="1" parent="dNxyNK7c78bLwvsdeMH5-21" source="y52odibCs_0-G0sl_E-t-14" target="y52odibCs_0-G0sl_E-t-10">
          <mxGeometry relative="1" as="geometry" />
        </mxCell>
        <mxCell id="y52odibCs_0-G0sl_E-t-14" value="Check farm exits" style="rhombus;whiteSpace=wrap;html=1;fontSize=11;" vertex="1" parent="dNxyNK7c78bLwvsdeMH5-21">
          <mxGeometry x="130" y="12.5" width="80" height="80" as="geometry" />
        </mxCell>
        <mxCell id="y52odibCs_0-G0sl_E-t-22" value="Request Add New" style="rounded=0;whiteSpace=wrap;html=1;fontFamily=Helvetica;fontSize=12;fontColor=#000000;align=center;labelBorderColor=none;" vertex="1" parent="dNxyNK7c78bLwvsdeMH5-21">
          <mxGeometry x="395" y="28.75" width="100" height="47.5" as="geometry" />
        </mxCell>
        <mxCell id="y52odibCs_0-G0sl_E-t-16" value="No" style="text;strokeColor=none;fillColor=none;align=left;verticalAlign=middle;spacingLeft=4;spacingRight=4;overflow=hidden;points=[[0,0.5],[1,0.5]];portConstraint=eastwest;rotatable=0;whiteSpace=wrap;html=1;fontSize=11;" vertex="1" parent="dNxyNK7c78bLwvsdeMH5-21">
          <mxGeometry x="211" y="28.75" width="80" height="30" as="geometry" />
        </mxCell>
        <mxCell id="y52odibCs_0-G0sl_E-t-34" value="&lt;font style=&quot;font-size: 10px;&quot;&gt;farm info&lt;/font&gt;" style="shape=card;whiteSpace=wrap;html=1;size=20;rotation=90;verticalAlign=middle;horizontal=0;" vertex="1" parent="dNxyNK7c78bLwvsdeMH5-21">
          <mxGeometry x="486.13" y="55.13" width="35.62" height="60" as="geometry" />
        </mxCell>
        <mxCell id="y52odibCs_0-G0sl_E-t-43" value="Yes" style="text;strokeColor=none;fillColor=none;align=left;verticalAlign=middle;spacingLeft=4;spacingRight=4;overflow=hidden;points=[[0,0.5],[1,0.5]];portConstraint=eastwest;rotatable=0;whiteSpace=wrap;html=1;fontSize=11;" vertex="1" parent="dNxyNK7c78bLwvsdeMH5-21">
          <mxGeometry x="170" y="92.5" width="80" height="30" as="geometry" />
        </mxCell>
        <mxCell id="dNxyNK7c78bLwvsdeMH5-22" value="Supervisor" style="swimlane;html=1;startSize=20;horizontal=0;" parent="dNxyNK7c78bLwvsdeMH5-19" vertex="1">
          <mxGeometry x="20" y="425.91999999999996" width="610" height="160" as="geometry" />
        </mxCell>
        <mxCell id="y52odibCs_0-G0sl_E-t-67" style="edgeStyle=elbowEdgeStyle;rounded=0;orthogonalLoop=1;jettySize=auto;html=1;entryX=0;entryY=0.5;entryDx=0;entryDy=0;fontSize=11;" edge="1" parent="dNxyNK7c78bLwvsdeMH5-22" source="y52odibCs_0-G0sl_E-t-41" target="y52odibCs_0-G0sl_E-t-45">
          <mxGeometry relative="1" as="geometry" />
        </mxCell>
        <mxCell id="y52odibCs_0-G0sl_E-t-41" value="Validation process" style="rounded=1;whiteSpace=wrap;html=1;fontFamily=Helvetica;fontSize=12;fontColor=#000000;align=center;labelBorderColor=none;" vertex="1" parent="dNxyNK7c78bLwvsdeMH5-22">
          <mxGeometry x="121" y="36.37" width="100" height="47.5" as="geometry" />
        </mxCell>
        <mxCell id="y52odibCs_0-G0sl_E-t-44" value="&lt;font style=&quot;font-size: 10px;&quot;&gt;User&#39;s Check In/Out info&lt;/font&gt;" style="shape=card;whiteSpace=wrap;html=1;size=20;rotation=90;verticalAlign=middle;horizontal=0;align=left;" vertex="1" parent="dNxyNK7c78bLwvsdeMH5-22">
          <mxGeometry x="221" y="44.37" width="35.62" height="79.25" as="geometry" />
        </mxCell>
        <mxCell id="y52odibCs_0-G0sl_E-t-68" style="edgeStyle=elbowEdgeStyle;rounded=0;orthogonalLoop=1;jettySize=auto;html=1;entryX=0;entryY=0.5;entryDx=0;entryDy=0;fontSize=11;" edge="1" parent="dNxyNK7c78bLwvsdeMH5-22" source="y52odibCs_0-G0sl_E-t-45" target="y52odibCs_0-G0sl_E-t-48">
          <mxGeometry relative="1" as="geometry" />
        </mxCell>
        <mxCell id="y52odibCs_0-G0sl_E-t-45" value="Report" style="rounded=0;whiteSpace=wrap;html=1;fontFamily=Helvetica;fontSize=12;fontColor=#000000;align=center;" vertex="1" parent="dNxyNK7c78bLwvsdeMH5-22">
          <mxGeometry x="331" y="37.620000000000005" width="100" height="45" as="geometry" />
        </mxCell>
        <mxCell id="y52odibCs_0-G0sl_E-t-48" value="END" style="ellipse;whiteSpace=wrap;html=1;" vertex="1" parent="dNxyNK7c78bLwvsdeMH5-22">
          <mxGeometry x="491" y="42.62" width="50" height="35" as="geometry" />
        </mxCell>
        <mxCell id="y52odibCs_0-G0sl_E-t-54" style="edgeStyle=elbowEdgeStyle;rounded=0;orthogonalLoop=1;jettySize=auto;html=1;entryX=0.5;entryY=0;entryDx=0;entryDy=0;fontSize=11;" edge="1" parent="dNxyNK7c78bLwvsdeMH5-19" source="dNxyNK7c78bLwvsdeMH5-24" target="y52odibCs_0-G0sl_E-t-14">
          <mxGeometry relative="1" as="geometry" />
        </mxCell>
        <mxCell id="y52odibCs_0-G0sl_E-t-66" style="edgeStyle=elbowEdgeStyle;rounded=0;orthogonalLoop=1;jettySize=auto;html=1;entryX=0.5;entryY=0;entryDx=0;entryDy=0;fontSize=11;" edge="1" parent="dNxyNK7c78bLwvsdeMH5-19" source="y52odibCs_0-G0sl_E-t-10" target="y52odibCs_0-G0sl_E-t-41">
          <mxGeometry relative="1" as="geometry" />
        </mxCell>
      </root>
    </mxGraphModel>
  </diagram>
</mxfile>
